# xmcd CD database file
#
# Track frame offsets:
#	150
#	22100
#	45211
#	81061
#	104790
#	130017
#	151774
#	186564
#	190382
#	210611
#	226467
#	250666
#	286829
#
# Disc length: 4160 seconds
#
# Revision: 0
# Processed by: cddbd v1.4PL0 Copyright (c) Steve Scherf et al.
# Submitted via: CDex 1.40Beta9
#
DISCID=ae103e0d
DTITLE=Bill Lupkin and the Chicago Blues Coalition - Live at the Hot Spot
DYEAR=1998
DGENRE=Blues
TTITLE0=Blow Wind Blow
TTITLE1=Man or Mouse
TTITLE2=Black Night
TTITLE3=R and M Blues
TTITLE4=Where You Goin'
TTITLE5=What Have I Done Wrong
TTITLE6=That's Alright
TTITLE7=Intros
TTITLE8=Business Man
TTITLE9=Got Me Nervous
TTITLE10=Early in the Mornin'
TTITLE11=Long Distance Call
TTITLE12=Mean Mistreater
EXTD=YEAR: 1998 ID3G: 0
EXTT0=
EXTT1=
EXTT2=
EXTT3=
EXTT4=
EXTT5=
EXTT6=
EXTT7=
EXTT8=
EXTT9=
EXTT10=
EXTT11=
EXTT12=
PLAYORDER=
